<mxfile host="app.diagrams.net" agent="Mozilla/5.0 (Windows NT 10.0; Win64; x64) AppleWebKit/537.36 (KHTML, like Gecko) Chrome/131.0.0.0 Safari/537.36 Edg/131.0.0.0" version="26.0.3">
  <diagram id="C5RBs43oDa-KdzZeNtuy" name="Page-1">
    <mxGraphModel dx="1026" dy="1116" grid="1" gridSize="10" guides="1" tooltips="1" connect="1" arrows="1" fold="1" page="1" pageScale="1" pageWidth="827" pageHeight="1169" math="0" shadow="0">
      <root>
        <mxCell id="WIyWlLk6GJQsqaUBKTNV-0" />
        <mxCell id="WIyWlLk6GJQsqaUBKTNV-1" parent="WIyWlLk6GJQsqaUBKTNV-0" />
        <mxCell id="FV-6iEeXXQX-vQ6l4mJx-0" value="Mulai" style="ellipse;whiteSpace=wrap;html=1;" vertex="1" parent="WIyWlLk6GJQsqaUBKTNV-1">
          <mxGeometry x="160" y="10" width="110" height="50" as="geometry" />
        </mxCell>
        <mxCell id="FV-6iEeXXQX-vQ6l4mJx-1" value="Form Laporan Mingguan" style="rounded=0;whiteSpace=wrap;html=1;" vertex="1" parent="WIyWlLk6GJQsqaUBKTNV-1">
          <mxGeometry x="155" y="90" width="120" height="40" as="geometry" />
        </mxCell>
        <mxCell id="FV-6iEeXXQX-vQ6l4mJx-2" value="" style="endArrow=classic;html=1;rounded=0;exitX=0.5;exitY=1;exitDx=0;exitDy=0;" edge="1" parent="WIyWlLk6GJQsqaUBKTNV-1" source="FV-6iEeXXQX-vQ6l4mJx-0" target="FV-6iEeXXQX-vQ6l4mJx-1">
          <mxGeometry width="50" height="50" relative="1" as="geometry">
            <mxPoint x="290" y="170" as="sourcePoint" />
            <mxPoint x="340" y="120" as="targetPoint" />
          </mxGeometry>
        </mxCell>
        <mxCell id="FV-6iEeXXQX-vQ6l4mJx-10" value="" style="edgeStyle=orthogonalEdgeStyle;rounded=0;orthogonalLoop=1;jettySize=auto;html=1;" edge="1" parent="WIyWlLk6GJQsqaUBKTNV-1" source="FV-6iEeXXQX-vQ6l4mJx-3" target="FV-6iEeXXQX-vQ6l4mJx-9">
          <mxGeometry relative="1" as="geometry" />
        </mxCell>
        <mxCell id="FV-6iEeXXQX-vQ6l4mJx-3" value="Evaluasi Kesesuaian Informasi Barang" style="rounded=0;whiteSpace=wrap;html=1;" vertex="1" parent="WIyWlLk6GJQsqaUBKTNV-1">
          <mxGeometry x="155" y="150" width="120" height="40" as="geometry" />
        </mxCell>
        <mxCell id="FV-6iEeXXQX-vQ6l4mJx-4" value="" style="endArrow=classic;html=1;rounded=0;exitX=0.5;exitY=1;exitDx=0;exitDy=0;" edge="1" target="FV-6iEeXXQX-vQ6l4mJx-3" parent="WIyWlLk6GJQsqaUBKTNV-1" source="FV-6iEeXXQX-vQ6l4mJx-1">
          <mxGeometry width="50" height="50" relative="1" as="geometry">
            <mxPoint x="210" y="110" as="sourcePoint" />
            <mxPoint x="340" y="180" as="targetPoint" />
          </mxGeometry>
        </mxCell>
        <mxCell id="FV-6iEeXXQX-vQ6l4mJx-24" style="edgeStyle=orthogonalEdgeStyle;rounded=0;orthogonalLoop=1;jettySize=auto;html=1;" edge="1" parent="WIyWlLk6GJQsqaUBKTNV-1" source="FV-6iEeXXQX-vQ6l4mJx-9">
          <mxGeometry relative="1" as="geometry">
            <mxPoint x="215" y="330" as="targetPoint" />
          </mxGeometry>
        </mxCell>
        <mxCell id="FV-6iEeXXQX-vQ6l4mJx-9" value="Sesuai?" style="rhombus;whiteSpace=wrap;html=1;" vertex="1" parent="WIyWlLk6GJQsqaUBKTNV-1">
          <mxGeometry x="172.5" y="220" width="85" height="80" as="geometry" />
        </mxCell>
        <mxCell id="FV-6iEeXXQX-vQ6l4mJx-11" value="" style="endArrow=none;html=1;rounded=0;exitX=1;exitY=0.5;exitDx=0;exitDy=0;entryX=0;entryY=0.5;entryDx=0;entryDy=0;" edge="1" parent="WIyWlLk6GJQsqaUBKTNV-1" source="FV-6iEeXXQX-vQ6l4mJx-9" target="FV-6iEeXXQX-vQ6l4mJx-12">
          <mxGeometry width="50" height="50" relative="1" as="geometry">
            <mxPoint x="270" y="400" as="sourcePoint" />
            <mxPoint x="300" y="260" as="targetPoint" />
          </mxGeometry>
        </mxCell>
        <mxCell id="FV-6iEeXXQX-vQ6l4mJx-12" value="Tidak?" style="text;html=1;align=center;verticalAlign=middle;whiteSpace=wrap;rounded=0;" vertex="1" parent="WIyWlLk6GJQsqaUBKTNV-1">
          <mxGeometry x="350" y="245" width="60" height="30" as="geometry" />
        </mxCell>
        <mxCell id="FV-6iEeXXQX-vQ6l4mJx-13" value="" style="endArrow=classic;html=1;rounded=0;exitX=0.5;exitY=0;exitDx=0;exitDy=0;entryX=0.5;entryY=1;entryDx=0;entryDy=0;" edge="1" parent="WIyWlLk6GJQsqaUBKTNV-1" source="FV-6iEeXXQX-vQ6l4mJx-12" target="FV-6iEeXXQX-vQ6l4mJx-27">
          <mxGeometry width="50" height="50" relative="1" as="geometry">
            <mxPoint x="270" y="400" as="sourcePoint" />
            <mxPoint x="330" y="140" as="targetPoint" />
            <Array as="points" />
          </mxGeometry>
        </mxCell>
        <mxCell id="FV-6iEeXXQX-vQ6l4mJx-26" value="" style="edgeStyle=orthogonalEdgeStyle;rounded=0;orthogonalLoop=1;jettySize=auto;html=1;" edge="1" parent="WIyWlLk6GJQsqaUBKTNV-1" source="FV-6iEeXXQX-vQ6l4mJx-22" target="FV-6iEeXXQX-vQ6l4mJx-25">
          <mxGeometry relative="1" as="geometry" />
        </mxCell>
        <mxCell id="FV-6iEeXXQX-vQ6l4mJx-22" value="Ya?" style="text;html=1;align=center;verticalAlign=middle;whiteSpace=wrap;rounded=0;" vertex="1" parent="WIyWlLk6GJQsqaUBKTNV-1">
          <mxGeometry x="210" y="300" width="60" height="30" as="geometry" />
        </mxCell>
        <mxCell id="FV-6iEeXXQX-vQ6l4mJx-30" value="" style="edgeStyle=orthogonalEdgeStyle;rounded=0;orthogonalLoop=1;jettySize=auto;html=1;" edge="1" parent="WIyWlLk6GJQsqaUBKTNV-1" source="FV-6iEeXXQX-vQ6l4mJx-25" target="FV-6iEeXXQX-vQ6l4mJx-29">
          <mxGeometry relative="1" as="geometry" />
        </mxCell>
        <mxCell id="FV-6iEeXXQX-vQ6l4mJx-25" value="Dokumentasi Perubahan Informasi" style="rounded=0;whiteSpace=wrap;html=1;" vertex="1" parent="WIyWlLk6GJQsqaUBKTNV-1">
          <mxGeometry x="155" y="330" width="120" height="40" as="geometry" />
        </mxCell>
        <mxCell id="FV-6iEeXXQX-vQ6l4mJx-28" style="edgeStyle=orthogonalEdgeStyle;rounded=0;orthogonalLoop=1;jettySize=auto;html=1;entryX=1;entryY=0.5;entryDx=0;entryDy=0;" edge="1" parent="WIyWlLk6GJQsqaUBKTNV-1" source="FV-6iEeXXQX-vQ6l4mJx-27" target="FV-6iEeXXQX-vQ6l4mJx-3">
          <mxGeometry relative="1" as="geometry" />
        </mxCell>
        <mxCell id="FV-6iEeXXQX-vQ6l4mJx-27" value="Pengecekan Ketidaksesuaian" style="rounded=0;whiteSpace=wrap;html=1;" vertex="1" parent="WIyWlLk6GJQsqaUBKTNV-1">
          <mxGeometry x="320" y="150" width="120" height="40" as="geometry" />
        </mxCell>
        <mxCell id="FV-6iEeXXQX-vQ6l4mJx-32" value="" style="edgeStyle=orthogonalEdgeStyle;rounded=0;orthogonalLoop=1;jettySize=auto;html=1;" edge="1" parent="WIyWlLk6GJQsqaUBKTNV-1" source="FV-6iEeXXQX-vQ6l4mJx-29" target="FV-6iEeXXQX-vQ6l4mJx-31">
          <mxGeometry relative="1" as="geometry" />
        </mxCell>
        <mxCell id="FV-6iEeXXQX-vQ6l4mJx-29" value="Pembaruan di Sistem Pusat" style="rounded=0;whiteSpace=wrap;html=1;" vertex="1" parent="WIyWlLk6GJQsqaUBKTNV-1">
          <mxGeometry x="155" y="400" width="120" height="40" as="geometry" />
        </mxCell>
        <mxCell id="FV-6iEeXXQX-vQ6l4mJx-34" value="" style="edgeStyle=orthogonalEdgeStyle;rounded=0;orthogonalLoop=1;jettySize=auto;html=1;" edge="1" parent="WIyWlLk6GJQsqaUBKTNV-1" source="FV-6iEeXXQX-vQ6l4mJx-31" target="FV-6iEeXXQX-vQ6l4mJx-33">
          <mxGeometry relative="1" as="geometry" />
        </mxCell>
        <mxCell id="FV-6iEeXXQX-vQ6l4mJx-31" value="Notifikasi ke Semua Cabang" style="rounded=0;whiteSpace=wrap;html=1;" vertex="1" parent="WIyWlLk6GJQsqaUBKTNV-1">
          <mxGeometry x="155" y="470" width="120" height="40" as="geometry" />
        </mxCell>
        <mxCell id="FV-6iEeXXQX-vQ6l4mJx-36" value="" style="edgeStyle=orthogonalEdgeStyle;rounded=0;orthogonalLoop=1;jettySize=auto;html=1;" edge="1" parent="WIyWlLk6GJQsqaUBKTNV-1" source="FV-6iEeXXQX-vQ6l4mJx-33" target="FV-6iEeXXQX-vQ6l4mJx-35">
          <mxGeometry relative="1" as="geometry" />
        </mxCell>
        <mxCell id="FV-6iEeXXQX-vQ6l4mJx-33" value="Hasil Evaluasi Mingguan" style="rounded=0;whiteSpace=wrap;html=1;" vertex="1" parent="WIyWlLk6GJQsqaUBKTNV-1">
          <mxGeometry x="155" y="544.5" width="120" height="40" as="geometry" />
        </mxCell>
        <mxCell id="FV-6iEeXXQX-vQ6l4mJx-39" value="" style="edgeStyle=orthogonalEdgeStyle;rounded=0;orthogonalLoop=1;jettySize=auto;html=1;" edge="1" parent="WIyWlLk6GJQsqaUBKTNV-1" source="FV-6iEeXXQX-vQ6l4mJx-35" target="FV-6iEeXXQX-vQ6l4mJx-37">
          <mxGeometry relative="1" as="geometry" />
        </mxCell>
        <mxCell id="FV-6iEeXXQX-vQ6l4mJx-35" value="Laporan Informasi Bulanan" style="rounded=0;whiteSpace=wrap;html=1;" vertex="1" parent="WIyWlLk6GJQsqaUBKTNV-1">
          <mxGeometry x="155" y="610" width="120" height="40" as="geometry" />
        </mxCell>
        <mxCell id="FV-6iEeXXQX-vQ6l4mJx-37" value="Mulai" style="ellipse;whiteSpace=wrap;html=1;" vertex="1" parent="WIyWlLk6GJQsqaUBKTNV-1">
          <mxGeometry x="160" y="680" width="110" height="50" as="geometry" />
        </mxCell>
      </root>
    </mxGraphModel>
  </diagram>
</mxfile>
